# xmcd
# 
# Track frame offsets:
#     150
#     34319
#     66895
#     87337
#     126791
#     165215
# 
# Disc length: 2514
# 
# Revision: 1
# Processed by: cddbd v1.5.2PL0 Copyright (c) Steve Scherf et al.
# Submitted via: BonkEnc v1.0.8
# 
DISCID=4609d006
DTITLE=Hubert Laws - Family
DYEAR=1979
DGENRE=Fusion
TTITLE0=Family
TTITLE1=Memory Of Minnie (Ripperton)
TTITLE2=Say You're Mine
TTITLE3=Ravel's Bolero
TTITLE4=What A Night!
TTITLE5=Wildfire
EXTD=
EXTT0=
EXTT1=
EXTT2=
EXTT3=
EXTT4=
EXTT5=
PLAYORDER=
